<mxfile host="app.diagrams.net" modified="2024-04-09T05:29:51.642Z" agent="Mozilla/5.0 (Windows NT 10.0; Win64; x64) AppleWebKit/537.36 (KHTML, like Gecko) Chrome/123.0.0.0 Safari/537.36" etag="4m1TwfDRcBaNfjdop5PE" version="24.2.3" type="github">
  <diagram id="C5RBs43oDa-KdzZeNtuy" name="Page-1">
    <mxGraphModel dx="3033" dy="2304" grid="1" gridSize="10" guides="1" tooltips="1" connect="1" arrows="1" fold="1" page="1" pageScale="1" pageWidth="827" pageHeight="1169" math="0" shadow="0">
      <root>
        <mxCell id="WIyWlLk6GJQsqaUBKTNV-0" />
        <mxCell id="WIyWlLk6GJQsqaUBKTNV-1" parent="WIyWlLk6GJQsqaUBKTNV-0" />
        <mxCell id="cO1XCbnvmXfLTX3U98Vz-11" value="&lt;font data-sider-select-id=&quot;f2dde7c2-e914-4822-84c2-8bb58e5855f4&quot; style=&quot;font-size: 19px;&quot;&gt;사용자&lt;/font&gt;" style="swimlane;whiteSpace=wrap;html=1;" vertex="1" parent="WIyWlLk6GJQsqaUBKTNV-1">
          <mxGeometry x="-110" y="-800" width="1000" height="940" as="geometry" />
        </mxCell>
        <mxCell id="f5yjZBaVh5itBudGduC8-17" style="edgeStyle=orthogonalEdgeStyle;rounded=0;orthogonalLoop=1;jettySize=auto;html=1;fontSize=15;" parent="cO1XCbnvmXfLTX3U98Vz-11" source="WIyWlLk6GJQsqaUBKTNV-3" target="f5yjZBaVh5itBudGduC8-16" edge="1">
          <mxGeometry relative="1" as="geometry" />
        </mxCell>
        <mxCell id="WIyWlLk6GJQsqaUBKTNV-3" value="도서관리&lt;div style=&quot;font-size: 15px;&quot;&gt;시스템 접속&lt;/div&gt;" style="rounded=1;whiteSpace=wrap;html=1;fontSize=15;glass=0;strokeWidth=1;shadow=0;" parent="cO1XCbnvmXfLTX3U98Vz-11" vertex="1">
          <mxGeometry x="190" y="200" width="89" height="60" as="geometry" />
        </mxCell>
        <mxCell id="f5yjZBaVh5itBudGduC8-2" style="edgeStyle=orthogonalEdgeStyle;rounded=0;orthogonalLoop=1;jettySize=auto;html=1;entryX=0.5;entryY=0;entryDx=0;entryDy=0;fontSize=15;" parent="cO1XCbnvmXfLTX3U98Vz-11" source="f5yjZBaVh5itBudGduC8-10" target="WIyWlLk6GJQsqaUBKTNV-3" edge="1">
          <mxGeometry relative="1" as="geometry">
            <Array as="points">
              <mxPoint x="239" y="170" />
            </Array>
          </mxGeometry>
        </mxCell>
        <mxCell id="f5yjZBaVh5itBudGduC8-6" style="edgeStyle=orthogonalEdgeStyle;rounded=0;orthogonalLoop=1;jettySize=auto;html=1;entryX=0.5;entryY=0;entryDx=0;entryDy=0;fontSize=15;" parent="cO1XCbnvmXfLTX3U98Vz-11" source="f5yjZBaVh5itBudGduC8-0" target="f5yjZBaVh5itBudGduC8-4" edge="1">
          <mxGeometry relative="1" as="geometry" />
        </mxCell>
        <mxCell id="f5yjZBaVh5itBudGduC8-7" style="edgeStyle=orthogonalEdgeStyle;rounded=0;orthogonalLoop=1;jettySize=auto;html=1;fontSize=15;" parent="cO1XCbnvmXfLTX3U98Vz-11" target="f5yjZBaVh5itBudGduC8-5" edge="1">
          <mxGeometry relative="1" as="geometry">
            <mxPoint x="537.9999999999998" y="170.00000000000023" as="sourcePoint" />
            <Array as="points">
              <mxPoint x="518" y="170" />
              <mxPoint x="773" y="170" />
            </Array>
          </mxGeometry>
        </mxCell>
        <mxCell id="f5yjZBaVh5itBudGduC8-0" value="" style="ellipse;fillColor=strokeColor;html=1;" parent="cO1XCbnvmXfLTX3U98Vz-11" vertex="1">
          <mxGeometry x="503" y="80" width="30" height="30" as="geometry" />
        </mxCell>
        <mxCell id="f5yjZBaVh5itBudGduC8-37" style="edgeStyle=orthogonalEdgeStyle;rounded=0;orthogonalLoop=1;jettySize=auto;html=1;entryX=0.5;entryY=0;entryDx=0;entryDy=0;fontSize=15;" parent="cO1XCbnvmXfLTX3U98Vz-11" source="f5yjZBaVh5itBudGduC8-4" target="f5yjZBaVh5itBudGduC8-21" edge="1">
          <mxGeometry relative="1" as="geometry" />
        </mxCell>
        <mxCell id="f5yjZBaVh5itBudGduC8-4" value="도서대출&lt;div style=&quot;font-size: 15px;&quot;&gt;시스템 접속&lt;/div&gt;" style="rounded=1;whiteSpace=wrap;html=1;fontSize=15;glass=0;strokeWidth=1;shadow=0;" parent="cO1XCbnvmXfLTX3U98Vz-11" vertex="1">
          <mxGeometry x="475" y="210" width="88" height="50" as="geometry" />
        </mxCell>
        <mxCell id="f5yjZBaVh5itBudGduC8-55" style="edgeStyle=orthogonalEdgeStyle;rounded=0;orthogonalLoop=1;jettySize=auto;html=1;entryX=0.5;entryY=0;entryDx=0;entryDy=0;fontSize=15;" parent="cO1XCbnvmXfLTX3U98Vz-11" source="f5yjZBaVh5itBudGduC8-5" target="f5yjZBaVh5itBudGduC8-54" edge="1">
          <mxGeometry relative="1" as="geometry" />
        </mxCell>
        <mxCell id="f5yjZBaVh5itBudGduC8-5" value="도서반납&lt;div style=&quot;font-size: 15px;&quot;&gt;시스템 접속&lt;/div&gt;" style="rounded=1;whiteSpace=wrap;html=1;fontSize=15;glass=0;strokeWidth=1;shadow=0;" parent="cO1XCbnvmXfLTX3U98Vz-11" vertex="1">
          <mxGeometry x="783.5" y="210" width="91" height="50" as="geometry" />
        </mxCell>
        <mxCell id="f5yjZBaVh5itBudGduC8-9" value="" style="edgeStyle=orthogonalEdgeStyle;rounded=0;orthogonalLoop=1;jettySize=auto;html=1;fontSize=15;" parent="cO1XCbnvmXfLTX3U98Vz-11" source="f5yjZBaVh5itBudGduC8-0" edge="1">
          <mxGeometry relative="1" as="geometry">
            <mxPoint x="518" y="150" as="sourcePoint" />
            <mxPoint x="518" y="149.99999999999977" as="targetPoint" />
            <Array as="points" />
          </mxGeometry>
        </mxCell>
        <mxCell id="f5yjZBaVh5itBudGduC8-11" value="" style="edgeStyle=orthogonalEdgeStyle;rounded=0;orthogonalLoop=1;jettySize=auto;html=1;fontSize=15;" parent="cO1XCbnvmXfLTX3U98Vz-11" source="f5yjZBaVh5itBudGduC8-0" target="f5yjZBaVh5itBudGduC8-10" edge="1">
          <mxGeometry relative="1" as="geometry">
            <mxPoint x="518" y="110" as="sourcePoint" />
            <mxPoint x="243" y="220" as="targetPoint" />
            <Array as="points">
              <mxPoint x="518" y="170" />
            </Array>
          </mxGeometry>
        </mxCell>
        <mxCell id="f5yjZBaVh5itBudGduC8-10" value="" style="rhombus;whiteSpace=wrap;html=1;fontSize=15;" parent="cO1XCbnvmXfLTX3U98Vz-11" vertex="1">
          <mxGeometry x="498" y="150" width="40" height="40" as="geometry" />
        </mxCell>
        <mxCell id="f5yjZBaVh5itBudGduC8-73" style="edgeStyle=orthogonalEdgeStyle;rounded=0;orthogonalLoop=1;jettySize=auto;html=1;entryX=0;entryY=0.5;entryDx=0;entryDy=0;fontSize=15;" parent="cO1XCbnvmXfLTX3U98Vz-11" source="f5yjZBaVh5itBudGduC8-12" target="f5yjZBaVh5itBudGduC8-68" edge="1">
          <mxGeometry relative="1" as="geometry">
            <Array as="points">
              <mxPoint x="99" y="735" />
            </Array>
          </mxGeometry>
        </mxCell>
        <mxCell id="f5yjZBaVh5itBudGduC8-12" value="신규 도서목록 조회" style="rounded=1;whiteSpace=wrap;html=1;fontSize=15;glass=0;strokeWidth=1;shadow=0;" parent="cO1XCbnvmXfLTX3U98Vz-11" vertex="1">
          <mxGeometry x="59" y="400" width="80" height="40" as="geometry" />
        </mxCell>
        <mxCell id="f5yjZBaVh5itBudGduC8-28" style="edgeStyle=orthogonalEdgeStyle;rounded=0;orthogonalLoop=1;jettySize=auto;html=1;entryX=0.5;entryY=0;entryDx=0;entryDy=0;fontSize=15;" parent="cO1XCbnvmXfLTX3U98Vz-11" source="f5yjZBaVh5itBudGduC8-16" target="f5yjZBaVh5itBudGduC8-12" edge="1">
          <mxGeometry relative="1" as="geometry">
            <Array as="points">
              <mxPoint x="239" y="350" />
              <mxPoint x="99" y="350" />
            </Array>
          </mxGeometry>
        </mxCell>
        <mxCell id="f5yjZBaVh5itBudGduC8-29" style="edgeStyle=orthogonalEdgeStyle;rounded=0;orthogonalLoop=1;jettySize=auto;html=1;fontSize=15;" parent="cO1XCbnvmXfLTX3U98Vz-11" source="f5yjZBaVh5itBudGduC8-16" target="f5yjZBaVh5itBudGduC8-18" edge="1">
          <mxGeometry relative="1" as="geometry">
            <Array as="points">
              <mxPoint x="239" y="360" />
              <mxPoint x="239" y="360" />
            </Array>
          </mxGeometry>
        </mxCell>
        <mxCell id="f5yjZBaVh5itBudGduC8-32" style="edgeStyle=orthogonalEdgeStyle;rounded=0;orthogonalLoop=1;jettySize=auto;html=1;entryX=0.5;entryY=0;entryDx=0;entryDy=0;fontSize=15;" parent="cO1XCbnvmXfLTX3U98Vz-11" source="f5yjZBaVh5itBudGduC8-16" target="f5yjZBaVh5itBudGduC8-20" edge="1">
          <mxGeometry relative="1" as="geometry">
            <Array as="points">
              <mxPoint x="239" y="350" />
              <mxPoint x="379" y="350" />
            </Array>
          </mxGeometry>
        </mxCell>
        <mxCell id="f5yjZBaVh5itBudGduC8-16" value="" style="rhombus;whiteSpace=wrap;html=1;fontSize=15;" parent="cO1XCbnvmXfLTX3U98Vz-11" vertex="1">
          <mxGeometry x="219" y="290" width="40" height="40" as="geometry" />
        </mxCell>
        <mxCell id="f5yjZBaVh5itBudGduC8-34" style="edgeStyle=orthogonalEdgeStyle;rounded=0;orthogonalLoop=1;jettySize=auto;html=1;entryX=0.5;entryY=0;entryDx=0;entryDy=0;fontSize=15;" parent="cO1XCbnvmXfLTX3U98Vz-11" source="f5yjZBaVh5itBudGduC8-18" target="f5yjZBaVh5itBudGduC8-19" edge="1">
          <mxGeometry relative="1" as="geometry" />
        </mxCell>
        <mxCell id="f5yjZBaVh5itBudGduC8-18" value="신규 도서&lt;div style=&quot;font-size: 15px;&quot;&gt;주문&lt;/div&gt;" style="rounded=1;whiteSpace=wrap;html=1;fontSize=15;glass=0;strokeWidth=1;shadow=0;" parent="cO1XCbnvmXfLTX3U98Vz-11" vertex="1">
          <mxGeometry x="199" y="400" width="80" height="40" as="geometry" />
        </mxCell>
        <mxCell id="f5yjZBaVh5itBudGduC8-36" style="edgeStyle=orthogonalEdgeStyle;rounded=0;orthogonalLoop=1;jettySize=auto;html=1;fontSize=15;" parent="cO1XCbnvmXfLTX3U98Vz-11" source="f5yjZBaVh5itBudGduC8-19" target="f5yjZBaVh5itBudGduC8-35" edge="1">
          <mxGeometry relative="1" as="geometry" />
        </mxCell>
        <mxCell id="f5yjZBaVh5itBudGduC8-19" value="신규 도서&lt;div style=&quot;font-size: 15px;&quot;&gt;수령&lt;/div&gt;" style="rounded=1;whiteSpace=wrap;html=1;fontSize=15;glass=0;strokeWidth=1;shadow=0;" parent="cO1XCbnvmXfLTX3U98Vz-11" vertex="1">
          <mxGeometry x="199" y="500" width="80" height="40" as="geometry" />
        </mxCell>
        <mxCell id="f5yjZBaVh5itBudGduC8-74" style="edgeStyle=orthogonalEdgeStyle;rounded=0;orthogonalLoop=1;jettySize=auto;html=1;entryX=1;entryY=0.5;entryDx=0;entryDy=0;fontSize=15;" parent="cO1XCbnvmXfLTX3U98Vz-11" source="f5yjZBaVh5itBudGduC8-20" target="f5yjZBaVh5itBudGduC8-68" edge="1">
          <mxGeometry relative="1" as="geometry">
            <Array as="points">
              <mxPoint x="379" y="735" />
            </Array>
          </mxGeometry>
        </mxCell>
        <mxCell id="f5yjZBaVh5itBudGduC8-20" value="도서 목록&lt;div style=&quot;font-size: 15px;&quot;&gt;삭제&lt;/div&gt;" style="rounded=1;whiteSpace=wrap;html=1;fontSize=15;glass=0;strokeWidth=1;shadow=0;" parent="cO1XCbnvmXfLTX3U98Vz-11" vertex="1">
          <mxGeometry x="339" y="400" width="80" height="40" as="geometry" />
        </mxCell>
        <mxCell id="f5yjZBaVh5itBudGduC8-63" style="edgeStyle=orthogonalEdgeStyle;rounded=0;orthogonalLoop=1;jettySize=auto;html=1;entryX=0.5;entryY=1;entryDx=0;entryDy=0;fontSize=15;" parent="cO1XCbnvmXfLTX3U98Vz-11" source="f5yjZBaVh5itBudGduC8-21" target="f5yjZBaVh5itBudGduC8-62" edge="1">
          <mxGeometry relative="1" as="geometry" />
        </mxCell>
        <mxCell id="f5yjZBaVh5itBudGduC8-64" value="허가되지&lt;div style=&quot;font-size: 15px;&quot;&gt;않은 사용자&lt;/div&gt;" style="edgeLabel;html=1;align=center;verticalAlign=middle;resizable=0;points=[];fontSize=15;" parent="f5yjZBaVh5itBudGduC8-63" vertex="1" connectable="0">
          <mxGeometry x="-0.3389" y="1" relative="1" as="geometry">
            <mxPoint as="offset" />
          </mxGeometry>
        </mxCell>
        <mxCell id="f5yjZBaVh5itBudGduC8-21" value="이용자 확인" style="rounded=1;whiteSpace=wrap;html=1;fontSize=15;glass=0;strokeWidth=1;shadow=0;" parent="cO1XCbnvmXfLTX3U98Vz-11" vertex="1">
          <mxGeometry x="478" y="330" width="80" height="40" as="geometry" />
        </mxCell>
        <mxCell id="f5yjZBaVh5itBudGduC8-51" style="edgeStyle=orthogonalEdgeStyle;rounded=0;orthogonalLoop=1;jettySize=auto;html=1;fontSize=15;" parent="cO1XCbnvmXfLTX3U98Vz-11" source="f5yjZBaVh5itBudGduC8-22" target="f5yjZBaVh5itBudGduC8-41" edge="1">
          <mxGeometry relative="1" as="geometry">
            <Array as="points">
              <mxPoint x="447" y="540" />
              <mxPoint x="523" y="540" />
            </Array>
          </mxGeometry>
        </mxCell>
        <mxCell id="f5yjZBaVh5itBudGduC8-22" value="이용자 인적 사항 저장" style="rounded=1;whiteSpace=wrap;html=1;fontSize=15;glass=0;strokeWidth=1;shadow=0;" parent="cO1XCbnvmXfLTX3U98Vz-11" vertex="1">
          <mxGeometry x="407" y="480" width="93" height="40" as="geometry" />
        </mxCell>
        <mxCell id="f5yjZBaVh5itBudGduC8-52" style="edgeStyle=orthogonalEdgeStyle;rounded=0;orthogonalLoop=1;jettySize=auto;html=1;entryX=0.5;entryY=0;entryDx=0;entryDy=0;fontSize=15;" parent="cO1XCbnvmXfLTX3U98Vz-11" source="f5yjZBaVh5itBudGduC8-23" target="f5yjZBaVh5itBudGduC8-41" edge="1">
          <mxGeometry relative="1" as="geometry">
            <Array as="points">
              <mxPoint x="598" y="540" />
              <mxPoint x="523" y="540" />
            </Array>
          </mxGeometry>
        </mxCell>
        <mxCell id="f5yjZBaVh5itBudGduC8-23" value="대출 도서 번호 저장" style="rounded=1;whiteSpace=wrap;html=1;fontSize=15;glass=0;strokeWidth=1;shadow=0;" parent="cO1XCbnvmXfLTX3U98Vz-11" vertex="1">
          <mxGeometry x="558" y="480" width="80" height="40" as="geometry" />
        </mxCell>
        <mxCell id="f5yjZBaVh5itBudGduC8-67" style="edgeStyle=orthogonalEdgeStyle;rounded=0;orthogonalLoop=1;jettySize=auto;html=1;entryX=0.5;entryY=0;entryDx=0;entryDy=0;fontSize=15;" parent="cO1XCbnvmXfLTX3U98Vz-11" source="f5yjZBaVh5itBudGduC8-24" target="f5yjZBaVh5itBudGduC8-61" edge="1">
          <mxGeometry relative="1" as="geometry" />
        </mxCell>
        <mxCell id="f5yjZBaVh5itBudGduC8-24" value="대출 처리" style="rounded=1;whiteSpace=wrap;html=1;fontSize=15;glass=0;strokeWidth=1;shadow=0;" parent="cO1XCbnvmXfLTX3U98Vz-11" vertex="1">
          <mxGeometry x="483" y="700" width="80" height="40" as="geometry" />
        </mxCell>
        <mxCell id="f5yjZBaVh5itBudGduC8-71" style="edgeStyle=orthogonalEdgeStyle;rounded=0;orthogonalLoop=1;jettySize=auto;html=1;fontSize=15;" parent="cO1XCbnvmXfLTX3U98Vz-11" source="f5yjZBaVh5itBudGduC8-25" target="f5yjZBaVh5itBudGduC8-69" edge="1">
          <mxGeometry relative="1" as="geometry">
            <Array as="points">
              <mxPoint x="909" y="630" />
            </Array>
          </mxGeometry>
        </mxCell>
        <mxCell id="f5yjZBaVh5itBudGduC8-25" value="도서 반납&lt;div data-sider-select-id=&quot;1af5cd44-5163-4e72-8a6a-a1fdf8940f8c&quot; style=&quot;font-size: 15px;&quot;&gt;처리&lt;/div&gt;" style="rounded=1;whiteSpace=wrap;html=1;fontSize=15;glass=0;strokeWidth=1;shadow=0;" parent="cO1XCbnvmXfLTX3U98Vz-11" vertex="1">
          <mxGeometry x="869" y="400" width="80" height="40" as="geometry" />
        </mxCell>
        <mxCell id="f5yjZBaVh5itBudGduC8-58" style="edgeStyle=orthogonalEdgeStyle;rounded=0;orthogonalLoop=1;jettySize=auto;html=1;entryX=0.5;entryY=0;entryDx=0;entryDy=0;fontSize=15;" parent="cO1XCbnvmXfLTX3U98Vz-11" source="f5yjZBaVh5itBudGduC8-26" target="f5yjZBaVh5itBudGduC8-27" edge="1">
          <mxGeometry relative="1" as="geometry" />
        </mxCell>
        <mxCell id="f5yjZBaVh5itBudGduC8-26" value="장기 미반납&lt;div data-sider-select-id=&quot;e208609f-bf72-46d0-8073-5b60997e293b&quot; style=&quot;font-size: 15px;&quot;&gt;전환&lt;/div&gt;" style="rounded=1;whiteSpace=wrap;html=1;fontSize=15;glass=0;strokeWidth=1;shadow=0;" parent="cO1XCbnvmXfLTX3U98Vz-11" vertex="1">
          <mxGeometry x="699" y="400" width="100" height="40" as="geometry" />
        </mxCell>
        <mxCell id="f5yjZBaVh5itBudGduC8-70" style="edgeStyle=orthogonalEdgeStyle;rounded=0;orthogonalLoop=1;jettySize=auto;html=1;fontSize=15;" parent="cO1XCbnvmXfLTX3U98Vz-11" source="f5yjZBaVh5itBudGduC8-27" target="f5yjZBaVh5itBudGduC8-69" edge="1">
          <mxGeometry relative="1" as="geometry">
            <Array as="points">
              <mxPoint x="749" y="630" />
            </Array>
          </mxGeometry>
        </mxCell>
        <mxCell id="f5yjZBaVh5itBudGduC8-27" value="독촉 문자&lt;div style=&quot;font-size: 15px;&quot;&gt;발송&lt;/div&gt;" style="rounded=1;whiteSpace=wrap;html=1;fontSize=15;glass=0;strokeWidth=1;shadow=0;" parent="cO1XCbnvmXfLTX3U98Vz-11" vertex="1">
          <mxGeometry x="709" y="490" width="80" height="40" as="geometry" />
        </mxCell>
        <mxCell id="f5yjZBaVh5itBudGduC8-33" style="edgeStyle=orthogonalEdgeStyle;rounded=0;orthogonalLoop=1;jettySize=auto;html=1;exitX=0.5;exitY=1;exitDx=0;exitDy=0;fontSize=15;" parent="cO1XCbnvmXfLTX3U98Vz-11" source="f5yjZBaVh5itBudGduC8-19" target="f5yjZBaVh5itBudGduC8-19" edge="1">
          <mxGeometry relative="1" as="geometry" />
        </mxCell>
        <mxCell id="f5yjZBaVh5itBudGduC8-75" style="edgeStyle=orthogonalEdgeStyle;rounded=0;orthogonalLoop=1;jettySize=auto;html=1;entryX=0.5;entryY=0;entryDx=0;entryDy=0;fontSize=15;" parent="cO1XCbnvmXfLTX3U98Vz-11" source="f5yjZBaVh5itBudGduC8-35" target="f5yjZBaVh5itBudGduC8-68" edge="1">
          <mxGeometry relative="1" as="geometry" />
        </mxCell>
        <mxCell id="f5yjZBaVh5itBudGduC8-35" value="도서&amp;nbsp;&lt;span style=&quot;background-color: initial; font-size: 15px;&quot;&gt;목록&lt;/span&gt;&lt;div style=&quot;font-size: 15px;&quot;&gt;&lt;span style=&quot;background-color: initial; font-size: 15px;&quot;&gt;업데이트&lt;/span&gt;&lt;/div&gt;" style="rounded=1;whiteSpace=wrap;html=1;fontSize=15;glass=0;strokeWidth=1;shadow=0;" parent="cO1XCbnvmXfLTX3U98Vz-11" vertex="1">
          <mxGeometry x="199" y="610" width="80" height="40" as="geometry" />
        </mxCell>
        <mxCell id="f5yjZBaVh5itBudGduC8-43" style="edgeStyle=orthogonalEdgeStyle;rounded=0;orthogonalLoop=1;jettySize=auto;html=1;entryX=0.5;entryY=0;entryDx=0;entryDy=0;fontSize=15;" parent="cO1XCbnvmXfLTX3U98Vz-11" source="f5yjZBaVh5itBudGduC8-38" target="f5yjZBaVh5itBudGduC8-22" edge="1">
          <mxGeometry relative="1" as="geometry">
            <Array as="points">
              <mxPoint x="493" y="446" />
              <mxPoint x="447" y="446" />
            </Array>
          </mxGeometry>
        </mxCell>
        <mxCell id="f5yjZBaVh5itBudGduC8-47" style="edgeStyle=orthogonalEdgeStyle;rounded=0;orthogonalLoop=1;jettySize=auto;html=1;fontSize=15;" parent="cO1XCbnvmXfLTX3U98Vz-11" source="f5yjZBaVh5itBudGduC8-38" target="f5yjZBaVh5itBudGduC8-23" edge="1">
          <mxGeometry relative="1" as="geometry">
            <Array as="points">
              <mxPoint x="553" y="446" />
              <mxPoint x="598" y="446" />
            </Array>
          </mxGeometry>
        </mxCell>
        <mxCell id="f5yjZBaVh5itBudGduC8-38" value="" style="html=1;points=[];perimeter=orthogonalPerimeter;fillColor=strokeColor;rotation=90;fontSize=15;" parent="cO1XCbnvmXfLTX3U98Vz-11" vertex="1">
          <mxGeometry x="516.75" y="345" width="5" height="130" as="geometry" />
        </mxCell>
        <mxCell id="f5yjZBaVh5itBudGduC8-53" style="edgeStyle=orthogonalEdgeStyle;rounded=0;orthogonalLoop=1;jettySize=auto;html=1;entryX=0.5;entryY=0;entryDx=0;entryDy=0;fontSize=15;" parent="cO1XCbnvmXfLTX3U98Vz-11" source="f5yjZBaVh5itBudGduC8-41" target="f5yjZBaVh5itBudGduC8-24" edge="1">
          <mxGeometry relative="1" as="geometry" />
        </mxCell>
        <mxCell id="f5yjZBaVh5itBudGduC8-41" value="" style="rhombus;whiteSpace=wrap;html=1;fontSize=15;" parent="cO1XCbnvmXfLTX3U98Vz-11" vertex="1">
          <mxGeometry x="503" y="590" width="40" height="40" as="geometry" />
        </mxCell>
        <mxCell id="f5yjZBaVh5itBudGduC8-46" style="edgeStyle=orthogonalEdgeStyle;rounded=0;orthogonalLoop=1;jettySize=auto;html=1;entryX=-0.3;entryY=0.506;entryDx=0;entryDy=0;entryPerimeter=0;fontSize=15;" parent="cO1XCbnvmXfLTX3U98Vz-11" source="f5yjZBaVh5itBudGduC8-21" target="f5yjZBaVh5itBudGduC8-38" edge="1">
          <mxGeometry relative="1" as="geometry" />
        </mxCell>
        <mxCell id="f5yjZBaVh5itBudGduC8-57" style="edgeStyle=orthogonalEdgeStyle;rounded=0;orthogonalLoop=1;jettySize=auto;html=1;entryX=0.5;entryY=0;entryDx=0;entryDy=0;fontSize=15;" parent="cO1XCbnvmXfLTX3U98Vz-11" source="f5yjZBaVh5itBudGduC8-54" target="f5yjZBaVh5itBudGduC8-26" edge="1">
          <mxGeometry relative="1" as="geometry">
            <Array as="points">
              <mxPoint x="829" y="360" />
              <mxPoint x="749" y="360" />
            </Array>
          </mxGeometry>
        </mxCell>
        <mxCell id="f5yjZBaVh5itBudGduC8-54" value="" style="rhombus;whiteSpace=wrap;html=1;fontSize=15;" parent="cO1XCbnvmXfLTX3U98Vz-11" vertex="1">
          <mxGeometry x="809" y="305" width="40" height="40" as="geometry" />
        </mxCell>
        <mxCell id="f5yjZBaVh5itBudGduC8-56" style="edgeStyle=orthogonalEdgeStyle;rounded=0;orthogonalLoop=1;jettySize=auto;html=1;entryX=0.579;entryY=0.067;entryDx=0;entryDy=0;entryPerimeter=0;fontSize=15;" parent="cO1XCbnvmXfLTX3U98Vz-11" source="f5yjZBaVh5itBudGduC8-54" target="f5yjZBaVh5itBudGduC8-25" edge="1">
          <mxGeometry relative="1" as="geometry">
            <Array as="points">
              <mxPoint x="829" y="360" />
              <mxPoint x="915" y="360" />
            </Array>
          </mxGeometry>
        </mxCell>
        <mxCell id="f5yjZBaVh5itBudGduC8-59" value="" style="ellipse;html=1;shape=endState;fillColor=strokeColor;fontSize=15;" parent="cO1XCbnvmXfLTX3U98Vz-11" vertex="1">
          <mxGeometry x="224" y="810" width="30" height="30" as="geometry" />
        </mxCell>
        <mxCell id="f5yjZBaVh5itBudGduC8-60" value="" style="ellipse;html=1;shape=endState;fillColor=strokeColor;fontSize=15;" parent="cO1XCbnvmXfLTX3U98Vz-11" vertex="1">
          <mxGeometry x="819" y="740" width="30" height="30" as="geometry" />
        </mxCell>
        <mxCell id="f5yjZBaVh5itBudGduC8-61" value="" style="ellipse;html=1;shape=endState;fillColor=strokeColor;fontSize=15;" parent="cO1XCbnvmXfLTX3U98Vz-11" vertex="1">
          <mxGeometry x="508" y="800" width="30" height="30" as="geometry" />
        </mxCell>
        <mxCell id="f5yjZBaVh5itBudGduC8-62" value="" style="ellipse;fontSize=15;" parent="cO1XCbnvmXfLTX3U98Vz-11" vertex="1">
          <mxGeometry x="673" y="290" width="30" height="30" as="geometry" />
        </mxCell>
        <mxCell id="f5yjZBaVh5itBudGduC8-76" style="edgeStyle=orthogonalEdgeStyle;rounded=0;orthogonalLoop=1;jettySize=auto;html=1;entryX=0.5;entryY=0;entryDx=0;entryDy=0;fontSize=15;" parent="cO1XCbnvmXfLTX3U98Vz-11" source="f5yjZBaVh5itBudGduC8-68" target="f5yjZBaVh5itBudGduC8-59" edge="1">
          <mxGeometry relative="1" as="geometry" />
        </mxCell>
        <mxCell id="f5yjZBaVh5itBudGduC8-68" value="" style="rhombus;whiteSpace=wrap;html=1;fontSize=15;" parent="cO1XCbnvmXfLTX3U98Vz-11" vertex="1">
          <mxGeometry x="219" y="715" width="40" height="40" as="geometry" />
        </mxCell>
        <mxCell id="f5yjZBaVh5itBudGduC8-77" style="edgeStyle=orthogonalEdgeStyle;rounded=0;orthogonalLoop=1;jettySize=auto;html=1;entryX=0.5;entryY=0;entryDx=0;entryDy=0;fontSize=15;" parent="cO1XCbnvmXfLTX3U98Vz-11" source="f5yjZBaVh5itBudGduC8-69" target="f5yjZBaVh5itBudGduC8-60" edge="1">
          <mxGeometry relative="1" as="geometry" />
        </mxCell>
        <mxCell id="f5yjZBaVh5itBudGduC8-69" value="" style="rhombus;whiteSpace=wrap;html=1;fontSize=15;" parent="cO1XCbnvmXfLTX3U98Vz-11" vertex="1">
          <mxGeometry x="814" y="610" width="40" height="40" as="geometry" />
        </mxCell>
        <mxCell id="cO1XCbnvmXfLTX3U98Vz-75" value="&lt;font data-sider-select-id=&quot;f2dde7c2-e914-4822-84c2-8bb58e5855f4&quot; style=&quot;font-size: 19px;&quot;&gt;관리자&lt;/font&gt;" style="swimlane;whiteSpace=wrap;html=1;" vertex="1" parent="WIyWlLk6GJQsqaUBKTNV-1">
          <mxGeometry x="940" y="-800" width="1000" height="940" as="geometry" />
        </mxCell>
        <mxCell id="cO1XCbnvmXfLTX3U98Vz-76" style="edgeStyle=orthogonalEdgeStyle;rounded=0;orthogonalLoop=1;jettySize=auto;html=1;fontSize=15;" edge="1" parent="cO1XCbnvmXfLTX3U98Vz-75" source="cO1XCbnvmXfLTX3U98Vz-77" target="cO1XCbnvmXfLTX3U98Vz-94">
          <mxGeometry relative="1" as="geometry" />
        </mxCell>
        <mxCell id="cO1XCbnvmXfLTX3U98Vz-77" value="도서관리&lt;div style=&quot;font-size: 15px;&quot;&gt;시스템 접속&lt;/div&gt;" style="rounded=1;whiteSpace=wrap;html=1;fontSize=15;glass=0;strokeWidth=1;shadow=0;" vertex="1" parent="cO1XCbnvmXfLTX3U98Vz-75">
          <mxGeometry x="190" y="200" width="89" height="60" as="geometry" />
        </mxCell>
        <mxCell id="cO1XCbnvmXfLTX3U98Vz-78" style="edgeStyle=orthogonalEdgeStyle;rounded=0;orthogonalLoop=1;jettySize=auto;html=1;entryX=0.5;entryY=0;entryDx=0;entryDy=0;fontSize=15;" edge="1" parent="cO1XCbnvmXfLTX3U98Vz-75" source="cO1XCbnvmXfLTX3U98Vz-88" target="cO1XCbnvmXfLTX3U98Vz-77">
          <mxGeometry relative="1" as="geometry">
            <Array as="points">
              <mxPoint x="239" y="170" />
            </Array>
          </mxGeometry>
        </mxCell>
        <mxCell id="cO1XCbnvmXfLTX3U98Vz-79" style="edgeStyle=orthogonalEdgeStyle;rounded=0;orthogonalLoop=1;jettySize=auto;html=1;entryX=0.5;entryY=0;entryDx=0;entryDy=0;fontSize=15;" edge="1" parent="cO1XCbnvmXfLTX3U98Vz-75" source="cO1XCbnvmXfLTX3U98Vz-81" target="cO1XCbnvmXfLTX3U98Vz-83">
          <mxGeometry relative="1" as="geometry" />
        </mxCell>
        <mxCell id="cO1XCbnvmXfLTX3U98Vz-80" style="edgeStyle=orthogonalEdgeStyle;rounded=0;orthogonalLoop=1;jettySize=auto;html=1;fontSize=15;" edge="1" parent="cO1XCbnvmXfLTX3U98Vz-75" target="cO1XCbnvmXfLTX3U98Vz-85">
          <mxGeometry relative="1" as="geometry">
            <mxPoint x="537.9999999999998" y="170.00000000000023" as="sourcePoint" />
            <Array as="points">
              <mxPoint x="518" y="170" />
              <mxPoint x="773" y="170" />
            </Array>
          </mxGeometry>
        </mxCell>
        <mxCell id="cO1XCbnvmXfLTX3U98Vz-81" value="" style="ellipse;fillColor=strokeColor;html=1;" vertex="1" parent="cO1XCbnvmXfLTX3U98Vz-75">
          <mxGeometry x="503" y="80" width="30" height="30" as="geometry" />
        </mxCell>
        <mxCell id="cO1XCbnvmXfLTX3U98Vz-82" style="edgeStyle=orthogonalEdgeStyle;rounded=0;orthogonalLoop=1;jettySize=auto;html=1;entryX=0.5;entryY=0;entryDx=0;entryDy=0;fontSize=15;" edge="1" parent="cO1XCbnvmXfLTX3U98Vz-75" source="cO1XCbnvmXfLTX3U98Vz-83" target="cO1XCbnvmXfLTX3U98Vz-103">
          <mxGeometry relative="1" as="geometry" />
        </mxCell>
        <mxCell id="cO1XCbnvmXfLTX3U98Vz-83" value="도서대출&lt;div style=&quot;font-size: 15px;&quot;&gt;시스템 접속&lt;/div&gt;" style="rounded=1;whiteSpace=wrap;html=1;fontSize=15;glass=0;strokeWidth=1;shadow=0;" vertex="1" parent="cO1XCbnvmXfLTX3U98Vz-75">
          <mxGeometry x="475" y="210" width="88" height="50" as="geometry" />
        </mxCell>
        <mxCell id="cO1XCbnvmXfLTX3U98Vz-84" style="edgeStyle=orthogonalEdgeStyle;rounded=0;orthogonalLoop=1;jettySize=auto;html=1;entryX=0.5;entryY=0;entryDx=0;entryDy=0;fontSize=15;" edge="1" parent="cO1XCbnvmXfLTX3U98Vz-75" source="cO1XCbnvmXfLTX3U98Vz-85" target="cO1XCbnvmXfLTX3U98Vz-126">
          <mxGeometry relative="1" as="geometry" />
        </mxCell>
        <mxCell id="cO1XCbnvmXfLTX3U98Vz-85" value="도서반납&lt;div style=&quot;font-size: 15px;&quot;&gt;시스템 접속&lt;/div&gt;" style="rounded=1;whiteSpace=wrap;html=1;fontSize=15;glass=0;strokeWidth=1;shadow=0;" vertex="1" parent="cO1XCbnvmXfLTX3U98Vz-75">
          <mxGeometry x="783.5" y="210" width="91" height="50" as="geometry" />
        </mxCell>
        <mxCell id="cO1XCbnvmXfLTX3U98Vz-86" value="" style="edgeStyle=orthogonalEdgeStyle;rounded=0;orthogonalLoop=1;jettySize=auto;html=1;fontSize=15;" edge="1" parent="cO1XCbnvmXfLTX3U98Vz-75" source="cO1XCbnvmXfLTX3U98Vz-81">
          <mxGeometry relative="1" as="geometry">
            <mxPoint x="518" y="150" as="sourcePoint" />
            <mxPoint x="518" y="149.99999999999977" as="targetPoint" />
            <Array as="points" />
          </mxGeometry>
        </mxCell>
        <mxCell id="cO1XCbnvmXfLTX3U98Vz-87" value="" style="edgeStyle=orthogonalEdgeStyle;rounded=0;orthogonalLoop=1;jettySize=auto;html=1;fontSize=15;" edge="1" parent="cO1XCbnvmXfLTX3U98Vz-75" source="cO1XCbnvmXfLTX3U98Vz-81" target="cO1XCbnvmXfLTX3U98Vz-88">
          <mxGeometry relative="1" as="geometry">
            <mxPoint x="518" y="110" as="sourcePoint" />
            <mxPoint x="243" y="220" as="targetPoint" />
            <Array as="points">
              <mxPoint x="518" y="170" />
            </Array>
          </mxGeometry>
        </mxCell>
        <mxCell id="cO1XCbnvmXfLTX3U98Vz-88" value="" style="rhombus;whiteSpace=wrap;html=1;fontSize=15;" vertex="1" parent="cO1XCbnvmXfLTX3U98Vz-75">
          <mxGeometry x="498" y="150" width="40" height="40" as="geometry" />
        </mxCell>
        <mxCell id="cO1XCbnvmXfLTX3U98Vz-89" style="edgeStyle=orthogonalEdgeStyle;rounded=0;orthogonalLoop=1;jettySize=auto;html=1;entryX=0;entryY=0.5;entryDx=0;entryDy=0;fontSize=15;" edge="1" parent="cO1XCbnvmXfLTX3U98Vz-75" source="cO1XCbnvmXfLTX3U98Vz-90" target="cO1XCbnvmXfLTX3U98Vz-133">
          <mxGeometry relative="1" as="geometry">
            <Array as="points">
              <mxPoint x="99" y="735" />
            </Array>
          </mxGeometry>
        </mxCell>
        <mxCell id="cO1XCbnvmXfLTX3U98Vz-90" value="신규 도서목록 조회" style="rounded=1;whiteSpace=wrap;html=1;fontSize=15;glass=0;strokeWidth=1;shadow=0;" vertex="1" parent="cO1XCbnvmXfLTX3U98Vz-75">
          <mxGeometry x="59" y="400" width="80" height="40" as="geometry" />
        </mxCell>
        <mxCell id="cO1XCbnvmXfLTX3U98Vz-91" style="edgeStyle=orthogonalEdgeStyle;rounded=0;orthogonalLoop=1;jettySize=auto;html=1;entryX=0.5;entryY=0;entryDx=0;entryDy=0;fontSize=15;" edge="1" parent="cO1XCbnvmXfLTX3U98Vz-75" source="cO1XCbnvmXfLTX3U98Vz-94" target="cO1XCbnvmXfLTX3U98Vz-90">
          <mxGeometry relative="1" as="geometry">
            <Array as="points">
              <mxPoint x="239" y="350" />
              <mxPoint x="99" y="350" />
            </Array>
          </mxGeometry>
        </mxCell>
        <mxCell id="cO1XCbnvmXfLTX3U98Vz-92" style="edgeStyle=orthogonalEdgeStyle;rounded=0;orthogonalLoop=1;jettySize=auto;html=1;fontSize=15;" edge="1" parent="cO1XCbnvmXfLTX3U98Vz-75" source="cO1XCbnvmXfLTX3U98Vz-94" target="cO1XCbnvmXfLTX3U98Vz-96">
          <mxGeometry relative="1" as="geometry">
            <Array as="points">
              <mxPoint x="239" y="360" />
              <mxPoint x="239" y="360" />
            </Array>
          </mxGeometry>
        </mxCell>
        <mxCell id="cO1XCbnvmXfLTX3U98Vz-93" style="edgeStyle=orthogonalEdgeStyle;rounded=0;orthogonalLoop=1;jettySize=auto;html=1;entryX=0.5;entryY=0;entryDx=0;entryDy=0;fontSize=15;" edge="1" parent="cO1XCbnvmXfLTX3U98Vz-75" source="cO1XCbnvmXfLTX3U98Vz-94" target="cO1XCbnvmXfLTX3U98Vz-100">
          <mxGeometry relative="1" as="geometry">
            <Array as="points">
              <mxPoint x="239" y="350" />
              <mxPoint x="379" y="350" />
            </Array>
          </mxGeometry>
        </mxCell>
        <mxCell id="cO1XCbnvmXfLTX3U98Vz-94" value="" style="rhombus;whiteSpace=wrap;html=1;fontSize=15;" vertex="1" parent="cO1XCbnvmXfLTX3U98Vz-75">
          <mxGeometry x="219" y="290" width="40" height="40" as="geometry" />
        </mxCell>
        <mxCell id="cO1XCbnvmXfLTX3U98Vz-95" style="edgeStyle=orthogonalEdgeStyle;rounded=0;orthogonalLoop=1;jettySize=auto;html=1;entryX=0.5;entryY=0;entryDx=0;entryDy=0;fontSize=15;" edge="1" parent="cO1XCbnvmXfLTX3U98Vz-75" source="cO1XCbnvmXfLTX3U98Vz-96" target="cO1XCbnvmXfLTX3U98Vz-98">
          <mxGeometry relative="1" as="geometry" />
        </mxCell>
        <mxCell id="cO1XCbnvmXfLTX3U98Vz-96" value="신규 도서&lt;div style=&quot;font-size: 15px;&quot;&gt;주문&lt;/div&gt;" style="rounded=1;whiteSpace=wrap;html=1;fontSize=15;glass=0;strokeWidth=1;shadow=0;" vertex="1" parent="cO1XCbnvmXfLTX3U98Vz-75">
          <mxGeometry x="199" y="400" width="80" height="40" as="geometry" />
        </mxCell>
        <mxCell id="cO1XCbnvmXfLTX3U98Vz-97" style="edgeStyle=orthogonalEdgeStyle;rounded=0;orthogonalLoop=1;jettySize=auto;html=1;fontSize=15;" edge="1" parent="cO1XCbnvmXfLTX3U98Vz-75" source="cO1XCbnvmXfLTX3U98Vz-98" target="cO1XCbnvmXfLTX3U98Vz-118">
          <mxGeometry relative="1" as="geometry" />
        </mxCell>
        <mxCell id="cO1XCbnvmXfLTX3U98Vz-98" value="신규 도서&lt;div style=&quot;font-size: 15px;&quot;&gt;수령&lt;/div&gt;" style="rounded=1;whiteSpace=wrap;html=1;fontSize=15;glass=0;strokeWidth=1;shadow=0;" vertex="1" parent="cO1XCbnvmXfLTX3U98Vz-75">
          <mxGeometry x="199" y="500" width="80" height="40" as="geometry" />
        </mxCell>
        <mxCell id="cO1XCbnvmXfLTX3U98Vz-99" style="edgeStyle=orthogonalEdgeStyle;rounded=0;orthogonalLoop=1;jettySize=auto;html=1;entryX=1;entryY=0.5;entryDx=0;entryDy=0;fontSize=15;" edge="1" parent="cO1XCbnvmXfLTX3U98Vz-75" source="cO1XCbnvmXfLTX3U98Vz-100" target="cO1XCbnvmXfLTX3U98Vz-133">
          <mxGeometry relative="1" as="geometry">
            <Array as="points">
              <mxPoint x="379" y="735" />
            </Array>
          </mxGeometry>
        </mxCell>
        <mxCell id="cO1XCbnvmXfLTX3U98Vz-100" value="도서 목록&lt;div style=&quot;font-size: 15px;&quot;&gt;삭제&lt;/div&gt;" style="rounded=1;whiteSpace=wrap;html=1;fontSize=15;glass=0;strokeWidth=1;shadow=0;" vertex="1" parent="cO1XCbnvmXfLTX3U98Vz-75">
          <mxGeometry x="339" y="400" width="80" height="40" as="geometry" />
        </mxCell>
        <mxCell id="cO1XCbnvmXfLTX3U98Vz-101" style="edgeStyle=orthogonalEdgeStyle;rounded=0;orthogonalLoop=1;jettySize=auto;html=1;entryX=0.5;entryY=1;entryDx=0;entryDy=0;fontSize=15;" edge="1" parent="cO1XCbnvmXfLTX3U98Vz-75" source="cO1XCbnvmXfLTX3U98Vz-103" target="cO1XCbnvmXfLTX3U98Vz-131">
          <mxGeometry relative="1" as="geometry" />
        </mxCell>
        <mxCell id="cO1XCbnvmXfLTX3U98Vz-102" value="허가되지&lt;div style=&quot;font-size: 15px;&quot;&gt;않은 사용자&lt;/div&gt;" style="edgeLabel;html=1;align=center;verticalAlign=middle;resizable=0;points=[];fontSize=15;" vertex="1" connectable="0" parent="cO1XCbnvmXfLTX3U98Vz-101">
          <mxGeometry x="-0.3389" y="1" relative="1" as="geometry">
            <mxPoint as="offset" />
          </mxGeometry>
        </mxCell>
        <mxCell id="cO1XCbnvmXfLTX3U98Vz-103" value="이용자&lt;div&gt;확인&lt;/div&gt;" style="rounded=1;whiteSpace=wrap;html=1;fontSize=15;glass=0;strokeWidth=1;shadow=0;" vertex="1" parent="cO1XCbnvmXfLTX3U98Vz-75">
          <mxGeometry x="478" y="330" width="80" height="40" as="geometry" />
        </mxCell>
        <mxCell id="cO1XCbnvmXfLTX3U98Vz-104" style="edgeStyle=orthogonalEdgeStyle;rounded=0;orthogonalLoop=1;jettySize=auto;html=1;fontSize=15;" edge="1" parent="cO1XCbnvmXfLTX3U98Vz-75" source="cO1XCbnvmXfLTX3U98Vz-105" target="cO1XCbnvmXfLTX3U98Vz-123">
          <mxGeometry relative="1" as="geometry">
            <Array as="points">
              <mxPoint x="447" y="540" />
              <mxPoint x="523" y="540" />
            </Array>
          </mxGeometry>
        </mxCell>
        <mxCell id="cO1XCbnvmXfLTX3U98Vz-105" value="이용자 인적 사항 저장" style="rounded=1;whiteSpace=wrap;html=1;fontSize=15;glass=0;strokeWidth=1;shadow=0;" vertex="1" parent="cO1XCbnvmXfLTX3U98Vz-75">
          <mxGeometry x="407" y="480" width="93" height="40" as="geometry" />
        </mxCell>
        <mxCell id="cO1XCbnvmXfLTX3U98Vz-106" style="edgeStyle=orthogonalEdgeStyle;rounded=0;orthogonalLoop=1;jettySize=auto;html=1;entryX=0.5;entryY=0;entryDx=0;entryDy=0;fontSize=15;" edge="1" parent="cO1XCbnvmXfLTX3U98Vz-75" source="cO1XCbnvmXfLTX3U98Vz-107" target="cO1XCbnvmXfLTX3U98Vz-123">
          <mxGeometry relative="1" as="geometry">
            <Array as="points">
              <mxPoint x="598" y="540" />
              <mxPoint x="523" y="540" />
            </Array>
          </mxGeometry>
        </mxCell>
        <mxCell id="cO1XCbnvmXfLTX3U98Vz-107" value="대출 도서 번호 저장" style="rounded=1;whiteSpace=wrap;html=1;fontSize=15;glass=0;strokeWidth=1;shadow=0;" vertex="1" parent="cO1XCbnvmXfLTX3U98Vz-75">
          <mxGeometry x="558" y="480" width="80" height="40" as="geometry" />
        </mxCell>
        <mxCell id="cO1XCbnvmXfLTX3U98Vz-108" style="edgeStyle=orthogonalEdgeStyle;rounded=0;orthogonalLoop=1;jettySize=auto;html=1;entryX=0.5;entryY=0;entryDx=0;entryDy=0;fontSize=15;" edge="1" parent="cO1XCbnvmXfLTX3U98Vz-75" source="cO1XCbnvmXfLTX3U98Vz-109" target="cO1XCbnvmXfLTX3U98Vz-130">
          <mxGeometry relative="1" as="geometry" />
        </mxCell>
        <mxCell id="cO1XCbnvmXfLTX3U98Vz-109" value="대출 처리" style="rounded=1;whiteSpace=wrap;html=1;fontSize=15;glass=0;strokeWidth=1;shadow=0;" vertex="1" parent="cO1XCbnvmXfLTX3U98Vz-75">
          <mxGeometry x="483" y="700" width="80" height="40" as="geometry" />
        </mxCell>
        <mxCell id="cO1XCbnvmXfLTX3U98Vz-110" style="edgeStyle=orthogonalEdgeStyle;rounded=0;orthogonalLoop=1;jettySize=auto;html=1;fontSize=15;" edge="1" parent="cO1XCbnvmXfLTX3U98Vz-75" source="cO1XCbnvmXfLTX3U98Vz-111" target="cO1XCbnvmXfLTX3U98Vz-135">
          <mxGeometry relative="1" as="geometry">
            <Array as="points">
              <mxPoint x="909" y="630" />
            </Array>
          </mxGeometry>
        </mxCell>
        <mxCell id="cO1XCbnvmXfLTX3U98Vz-111" value="도서 반납&lt;div data-sider-select-id=&quot;1af5cd44-5163-4e72-8a6a-a1fdf8940f8c&quot; style=&quot;font-size: 15px;&quot;&gt;처리&lt;/div&gt;" style="rounded=1;whiteSpace=wrap;html=1;fontSize=15;glass=0;strokeWidth=1;shadow=0;" vertex="1" parent="cO1XCbnvmXfLTX3U98Vz-75">
          <mxGeometry x="869" y="400" width="80" height="40" as="geometry" />
        </mxCell>
        <mxCell id="cO1XCbnvmXfLTX3U98Vz-112" style="edgeStyle=orthogonalEdgeStyle;rounded=0;orthogonalLoop=1;jettySize=auto;html=1;entryX=0.5;entryY=0;entryDx=0;entryDy=0;fontSize=15;" edge="1" parent="cO1XCbnvmXfLTX3U98Vz-75" source="cO1XCbnvmXfLTX3U98Vz-113" target="cO1XCbnvmXfLTX3U98Vz-115">
          <mxGeometry relative="1" as="geometry" />
        </mxCell>
        <mxCell id="cO1XCbnvmXfLTX3U98Vz-113" value="장기 미반납&lt;div data-sider-select-id=&quot;e208609f-bf72-46d0-8073-5b60997e293b&quot; style=&quot;font-size: 15px;&quot;&gt;전환&lt;/div&gt;" style="rounded=1;whiteSpace=wrap;html=1;fontSize=15;glass=0;strokeWidth=1;shadow=0;" vertex="1" parent="cO1XCbnvmXfLTX3U98Vz-75">
          <mxGeometry x="699" y="400" width="100" height="40" as="geometry" />
        </mxCell>
        <mxCell id="cO1XCbnvmXfLTX3U98Vz-114" style="edgeStyle=orthogonalEdgeStyle;rounded=0;orthogonalLoop=1;jettySize=auto;html=1;fontSize=15;" edge="1" parent="cO1XCbnvmXfLTX3U98Vz-75" source="cO1XCbnvmXfLTX3U98Vz-115" target="cO1XCbnvmXfLTX3U98Vz-135">
          <mxGeometry relative="1" as="geometry">
            <Array as="points">
              <mxPoint x="749" y="630" />
            </Array>
          </mxGeometry>
        </mxCell>
        <mxCell id="cO1XCbnvmXfLTX3U98Vz-115" value="독촉 문자&lt;div style=&quot;font-size: 15px;&quot;&gt;발송&lt;/div&gt;" style="rounded=1;whiteSpace=wrap;html=1;fontSize=15;glass=0;strokeWidth=1;shadow=0;" vertex="1" parent="cO1XCbnvmXfLTX3U98Vz-75">
          <mxGeometry x="709" y="490" width="80" height="40" as="geometry" />
        </mxCell>
        <mxCell id="cO1XCbnvmXfLTX3U98Vz-116" style="edgeStyle=orthogonalEdgeStyle;rounded=0;orthogonalLoop=1;jettySize=auto;html=1;exitX=0.5;exitY=1;exitDx=0;exitDy=0;fontSize=15;" edge="1" parent="cO1XCbnvmXfLTX3U98Vz-75" source="cO1XCbnvmXfLTX3U98Vz-98" target="cO1XCbnvmXfLTX3U98Vz-98">
          <mxGeometry relative="1" as="geometry" />
        </mxCell>
        <mxCell id="cO1XCbnvmXfLTX3U98Vz-117" style="edgeStyle=orthogonalEdgeStyle;rounded=0;orthogonalLoop=1;jettySize=auto;html=1;entryX=0.5;entryY=0;entryDx=0;entryDy=0;fontSize=15;" edge="1" parent="cO1XCbnvmXfLTX3U98Vz-75" source="cO1XCbnvmXfLTX3U98Vz-118" target="cO1XCbnvmXfLTX3U98Vz-133">
          <mxGeometry relative="1" as="geometry" />
        </mxCell>
        <mxCell id="cO1XCbnvmXfLTX3U98Vz-118" value="도서&amp;nbsp;&lt;span style=&quot;background-color: initial; font-size: 15px;&quot;&gt;목록&lt;/span&gt;&lt;div style=&quot;font-size: 15px;&quot;&gt;&lt;span style=&quot;background-color: initial; font-size: 15px;&quot;&gt;업데이트&lt;/span&gt;&lt;/div&gt;" style="rounded=1;whiteSpace=wrap;html=1;fontSize=15;glass=0;strokeWidth=1;shadow=0;" vertex="1" parent="cO1XCbnvmXfLTX3U98Vz-75">
          <mxGeometry x="199" y="610" width="80" height="40" as="geometry" />
        </mxCell>
        <mxCell id="cO1XCbnvmXfLTX3U98Vz-119" style="edgeStyle=orthogonalEdgeStyle;rounded=0;orthogonalLoop=1;jettySize=auto;html=1;entryX=0.5;entryY=0;entryDx=0;entryDy=0;fontSize=15;" edge="1" parent="cO1XCbnvmXfLTX3U98Vz-75" source="cO1XCbnvmXfLTX3U98Vz-121" target="cO1XCbnvmXfLTX3U98Vz-105">
          <mxGeometry relative="1" as="geometry">
            <Array as="points">
              <mxPoint x="493" y="446" />
              <mxPoint x="447" y="446" />
            </Array>
          </mxGeometry>
        </mxCell>
        <mxCell id="cO1XCbnvmXfLTX3U98Vz-120" style="edgeStyle=orthogonalEdgeStyle;rounded=0;orthogonalLoop=1;jettySize=auto;html=1;fontSize=15;" edge="1" parent="cO1XCbnvmXfLTX3U98Vz-75" source="cO1XCbnvmXfLTX3U98Vz-121" target="cO1XCbnvmXfLTX3U98Vz-107">
          <mxGeometry relative="1" as="geometry">
            <Array as="points">
              <mxPoint x="553" y="446" />
              <mxPoint x="598" y="446" />
            </Array>
          </mxGeometry>
        </mxCell>
        <mxCell id="cO1XCbnvmXfLTX3U98Vz-121" value="" style="html=1;points=[];perimeter=orthogonalPerimeter;fillColor=strokeColor;rotation=90;fontSize=15;" vertex="1" parent="cO1XCbnvmXfLTX3U98Vz-75">
          <mxGeometry x="516.75" y="345" width="5" height="130" as="geometry" />
        </mxCell>
        <mxCell id="cO1XCbnvmXfLTX3U98Vz-122" style="edgeStyle=orthogonalEdgeStyle;rounded=0;orthogonalLoop=1;jettySize=auto;html=1;entryX=0.5;entryY=0;entryDx=0;entryDy=0;fontSize=15;" edge="1" parent="cO1XCbnvmXfLTX3U98Vz-75" source="cO1XCbnvmXfLTX3U98Vz-123" target="cO1XCbnvmXfLTX3U98Vz-109">
          <mxGeometry relative="1" as="geometry" />
        </mxCell>
        <mxCell id="cO1XCbnvmXfLTX3U98Vz-123" value="" style="rhombus;whiteSpace=wrap;html=1;fontSize=15;" vertex="1" parent="cO1XCbnvmXfLTX3U98Vz-75">
          <mxGeometry x="503" y="590" width="40" height="40" as="geometry" />
        </mxCell>
        <mxCell id="cO1XCbnvmXfLTX3U98Vz-124" style="edgeStyle=orthogonalEdgeStyle;rounded=0;orthogonalLoop=1;jettySize=auto;html=1;entryX=-0.3;entryY=0.506;entryDx=0;entryDy=0;entryPerimeter=0;fontSize=15;" edge="1" parent="cO1XCbnvmXfLTX3U98Vz-75" source="cO1XCbnvmXfLTX3U98Vz-103" target="cO1XCbnvmXfLTX3U98Vz-121">
          <mxGeometry relative="1" as="geometry" />
        </mxCell>
        <mxCell id="cO1XCbnvmXfLTX3U98Vz-125" style="edgeStyle=orthogonalEdgeStyle;rounded=0;orthogonalLoop=1;jettySize=auto;html=1;entryX=0.5;entryY=0;entryDx=0;entryDy=0;fontSize=15;" edge="1" parent="cO1XCbnvmXfLTX3U98Vz-75" source="cO1XCbnvmXfLTX3U98Vz-126" target="cO1XCbnvmXfLTX3U98Vz-113">
          <mxGeometry relative="1" as="geometry">
            <Array as="points">
              <mxPoint x="829" y="360" />
              <mxPoint x="749" y="360" />
            </Array>
          </mxGeometry>
        </mxCell>
        <mxCell id="cO1XCbnvmXfLTX3U98Vz-126" value="" style="rhombus;whiteSpace=wrap;html=1;fontSize=15;" vertex="1" parent="cO1XCbnvmXfLTX3U98Vz-75">
          <mxGeometry x="809" y="305" width="40" height="40" as="geometry" />
        </mxCell>
        <mxCell id="cO1XCbnvmXfLTX3U98Vz-127" style="edgeStyle=orthogonalEdgeStyle;rounded=0;orthogonalLoop=1;jettySize=auto;html=1;entryX=0.579;entryY=0.067;entryDx=0;entryDy=0;entryPerimeter=0;fontSize=15;" edge="1" parent="cO1XCbnvmXfLTX3U98Vz-75" source="cO1XCbnvmXfLTX3U98Vz-126" target="cO1XCbnvmXfLTX3U98Vz-111">
          <mxGeometry relative="1" as="geometry">
            <Array as="points">
              <mxPoint x="829" y="360" />
              <mxPoint x="915" y="360" />
            </Array>
          </mxGeometry>
        </mxCell>
        <mxCell id="cO1XCbnvmXfLTX3U98Vz-128" value="" style="ellipse;html=1;shape=endState;fillColor=strokeColor;fontSize=15;" vertex="1" parent="cO1XCbnvmXfLTX3U98Vz-75">
          <mxGeometry x="224" y="810" width="30" height="30" as="geometry" />
        </mxCell>
        <mxCell id="cO1XCbnvmXfLTX3U98Vz-129" value="" style="ellipse;html=1;shape=endState;fillColor=strokeColor;fontSize=15;" vertex="1" parent="cO1XCbnvmXfLTX3U98Vz-75">
          <mxGeometry x="819" y="740" width="30" height="30" as="geometry" />
        </mxCell>
        <mxCell id="cO1XCbnvmXfLTX3U98Vz-130" value="" style="ellipse;html=1;shape=endState;fillColor=strokeColor;fontSize=15;" vertex="1" parent="cO1XCbnvmXfLTX3U98Vz-75">
          <mxGeometry x="508" y="800" width="30" height="30" as="geometry" />
        </mxCell>
        <mxCell id="cO1XCbnvmXfLTX3U98Vz-131" value="" style="ellipse;fontSize=15;" vertex="1" parent="cO1XCbnvmXfLTX3U98Vz-75">
          <mxGeometry x="673" y="290" width="30" height="30" as="geometry" />
        </mxCell>
        <mxCell id="cO1XCbnvmXfLTX3U98Vz-132" style="edgeStyle=orthogonalEdgeStyle;rounded=0;orthogonalLoop=1;jettySize=auto;html=1;entryX=0.5;entryY=0;entryDx=0;entryDy=0;fontSize=15;" edge="1" parent="cO1XCbnvmXfLTX3U98Vz-75" source="cO1XCbnvmXfLTX3U98Vz-133" target="cO1XCbnvmXfLTX3U98Vz-128">
          <mxGeometry relative="1" as="geometry" />
        </mxCell>
        <mxCell id="cO1XCbnvmXfLTX3U98Vz-133" value="" style="rhombus;whiteSpace=wrap;html=1;fontSize=15;" vertex="1" parent="cO1XCbnvmXfLTX3U98Vz-75">
          <mxGeometry x="219" y="715" width="40" height="40" as="geometry" />
        </mxCell>
        <mxCell id="cO1XCbnvmXfLTX3U98Vz-134" style="edgeStyle=orthogonalEdgeStyle;rounded=0;orthogonalLoop=1;jettySize=auto;html=1;entryX=0.5;entryY=0;entryDx=0;entryDy=0;fontSize=15;" edge="1" parent="cO1XCbnvmXfLTX3U98Vz-75" source="cO1XCbnvmXfLTX3U98Vz-135" target="cO1XCbnvmXfLTX3U98Vz-129">
          <mxGeometry relative="1" as="geometry" />
        </mxCell>
        <mxCell id="cO1XCbnvmXfLTX3U98Vz-135" value="" style="rhombus;whiteSpace=wrap;html=1;fontSize=15;" vertex="1" parent="cO1XCbnvmXfLTX3U98Vz-75">
          <mxGeometry x="814" y="610" width="40" height="40" as="geometry" />
        </mxCell>
      </root>
    </mxGraphModel>
  </diagram>
</mxfile>
